<svg xmlns="http://www.w3.org/2000/svg" version="1.1" width="600px" height="600px" viewBox="0 0 200 200" style="overflow:hidden!important;"><g id="svga-group-wrapper"><g id="svga-group-backs-single"><path id="SvgjsPath6844" d="M0 0h200v200H0V0z" fill="#ecf0f1" stroke-width="none" opacity="1"></path></g><g id="svga-group-humanwrap-move" transform="matrix(1,0,0,1,0,0)"><g id="svga-group-humanwrap"><g id="svga-group-hair-back-move" transform="matrix(1,0,0,1,0,0)"><g id="svga-group-hair-back"></g></g><g id="svga-group-humanbody-back"><path id="SvgjsPath3776" d="m170 180.3-27.3-6.9-18-9.9-1.5-28.2H76.8l-1.5 28.2-18 9.9-27.3 6.9-9.1 19.7-3 20h164.2l-3-20z" fill="#f0c7b1" stroke-width="none" opacity="1" stroke="none"></path><path id="SvgjsPath3777" d="m76.8 135.3-1.5 28.2-18 9.9-27.3 6.9-9.1 19.7-3 20h14.6v-20l2.7-17.7 23.8-6.4 24.7-8.3 3.5-32.3z" fill="#d19271" stroke-width="none" opacity="1" stroke="none"></path></g><g id="svga-group-chinshadow-single"><path id="SvgjsPath4135" d="m123.7 145.5-.5-10.2H76.8l-.8 15.1 7.1 6.4 14.1 4.1 14.2-4.1z" fill="#c27b55" stroke-width="none" opacity="1" stroke="none"></path></g><g id="svga-group-humanbody-front"><path id="SvgjsPath3778" d="m92.8 168.3 2 7.9 6.9 4.6s-8.5-3-8.7-3.6c-.2-.6-.2-8.9-.2-8.9z" fill="#d19271" stroke-width="none" opacity="1" stroke="none"></path></g><g id="svga-group-clothes-single"><path id="SvgjsPath6707" d="m179.6 200-8.5-20-28.8-7.4-9.5-4.8-.1-1.5-8.3-8.8.2 3.5-1.1 12.2-7.6 7.9-9.1 1.9-2.1 5.7-2.1 2.9-7.5-9.3-10.7-1.2-5.8-7.3-3.2-13.1.2-3.2-8.3 8.8-.1 1.5-9.5 4.8L29 180l-8.6 20-3.4 20h165.9z" fill="#386e77" stroke-width="none" opacity="1"></path><path id="SvgjsPath6708" d="m29.9 200.7 3.6-10.8 24.9-9.6 7.2-3.2.3-2 11.5-5.7h.1l-2.1-8.7.2-3.2-8.3 8.8-.1 1.5-9.5 4.8L29 180l-8.6 20-3.4 20h12.6z" fill="#265e68" stroke-width="none" opacity="1"></path><path id="SvgjsPath6709" d="m132.8 167.8 2.7 19.2 1.2 8.7L125 188l-5.2-5.3-4.2-1.6 4 3.4-6.4 2.6-7.9 1.5 7-.6-8.7 11.8V220h1.7l-.8-19.8 7.8-12 1-.1 7.1-2.8 4.2 4.5 13.3 8.1-1.6-12.4-3.5-17.7zm-33.1 29.7 2.9-5.9-3.5 5-6.1-8.7-12.5-3.4 3.8-3.3-4.2 1.6L75 188l-11.7 7.7 1.2-8.7 2.7-19.2-3.4 17.7-1.6 12.4 13.3-8.1 4.6-4.9.5-.5 11.8 4.3 6.1 8.6-1.2.7 1.1 21.9h1.5l-1.3-21 1.1-1.4zm10.5-12.8-1.5-.8-.9 1.4 1.4 1 1-1.6zm-9.3 13.3 1.4 1 1-1.7-1.5-.8-.9 1.5zm-.8 18.6 1.4 1 1-1.7-1.5-.8-.9 1.5zm-69.7-35.3 6.8 21 1.2 17.7h1.4l-1.1-17.8-8.3-20.9zm130.5 19.3-1.2 19.4h1.9l1-19.2 7-18.2-8.7 18z" fill="#184f58" stroke-width="none" opacity="1"></path><path id="SvgjsPath6710" d="m127 162.5-1.1-1.4v13l-5.3 8 4.8 4.6s2.3-11.1 2.3-11.8c0-.7-.7-12.4-.7-12.4zm-53.2.1.5-2.3-1.8 2.5 1.2 13.4 2.1 9.5 3.8-4.3-3.9-6.1-1.9-12.7z" fill="#4d7e86" stroke-width="none" opacity="1"></path></g><g id="svga-group-head" transform="matrix(1,0,0,1,0,0)"><g id="svga-group-ears-left-move" transform="matrix(1,0,0,1,0,0)"><g id="svga-group-ears-left"><path id="SvgjsPath3678" d="M63.1 91.8s-6-.7-10.6-3.7c0 0-3.5 9.4-4 14.4 0 0 6.7 13 10 18.5 0 0 5.2-.7 6.3-1.4l1.4-8.4-3.1-19.4z" fill="#f0c7b1" stroke-width="none" opacity="1" stroke="none"></path><path id="SvgjsPath3679" d="M53.3 90c-.2-.4-.8-1.9-.8-1.9 5.2.4 10.7 1.4 10.7 1.4l3 21.6-1.4 8.4c-1.1.7-6.3 1.4-6.3 1.4-.6-1-1.3-2.3-2.1-3.6l2.6 1 3-1.6s.7-11.2.5-11.5c-.1-.3-9-14.8-9.2-15.2z" fill="#e1ac8f" stroke-width="none" opacity="1" stroke="none"></path><path id="SvgjsPath3680" d="m50.3 100.9 2.8-5.5 5.2 6.8 2.2 9.5-1.4 1.9-4.3-7.6 1-4.7-2.6-4z" fill="#d19271" stroke-width="none" opacity="1" stroke="none"></path></g></g><g id="svga-group-ears-right-move" transform="matrix(1,0,0,1,0,0)"><g id="svga-group-ears-right"><path id="SvgjsPath3681" d="M136.9 91.8s6-.7 10.6-3.7c0 0 3.5 9.4 4 14.4 0 0-6.7 13-10 18.5 0 0-5.2-.7-6.3-1.4l-1.4-8.4 3.1-19.4z" fill="#f0c7b1" stroke-width="none" opacity="1" stroke="none"></path><path id="SvgjsPath3682" d="M146.7 90c.2-.4.8-1.9.8-1.9-5.2.4-10.7 1.4-10.7 1.4l-3 21.6 1.4 8.4c1.1.7 6.3 1.4 6.3 1.4.6-1 1.3-2.3 2.1-3.6l-2.6 1-3-1.6s-.7-11.2-.5-11.5c.1-.3 9-14.8 9.2-15.2z" fill="#e1ac8f" stroke-width="none" opacity="1" stroke="none"></path><path id="SvgjsPath3683" d="m149.7 100.9-2.8-5.5-5.2 6.8-2.2 9.5 1.4 1.9 4.3-7.6-1-4.7 2.6-4z" fill="#d19271" stroke-width="none" opacity="1" stroke="none"></path></g></g><g id="svga-group-faceshape-wrap"><g id="svga-group-faceshape-single"><path id="SvgjsPath4125" d="M138.1 60c-6.9-11.6-19.7-19.5-19.7-19.5-7.2-1.5-18.4-2.3-18.4-2.3s-11.1.8-18.4 2.3c0 0-12.8 7.9-19.7 19.5 0 0-5.1 14.5-5.3 24.8l3.7 42.9 25.6 23.5 14.1 4 14.1-4 25.6-23.5 3.7-42.9c-.2-10.3-5.3-24.8-5.3-24.8z" fill="#f0c7b1" stroke-width="none" opacity="1" stroke="none"></path><path id="SvgjsPath4126" d="M86.5 148.4 66.3 125l-3.8-40.6 3.6-22.8c1.9-3.3 17.1-17.5 17.1-17.5l16.6-3 18.6-.6c-7.2-1.5-18.4-2.3-18.4-2.3s-11.1.8-18.4 2.3c0 0-12.8 7.9-19.7 19.5 0 0-5.1 14.5-5.3 24.8l3.7 42.9 25.6 23.5 14.1 4 14.1-4-14.4 2.6-13.2-5.4z" fill="#d19271" stroke-width="none" opacity="1" stroke="none"></path></g></g><g id="svga-group-mouth-single-move" transform="matrix(1,0,0,1,0,0)"><g id="svga-group-mouth-single"><path id="SvgjsPath4478" d="m86.1 127.33 9.7-2.33 4.34 1.24 4.56-1.44 9.57 2.17s-9.27 1.36-9.41 1.41c-.14.05-4.32 3.14-4.32 3.14s-5.13-2.91-5.36-2.91c-.22-.01-9.08-1.28-9.08-1.28z" fill="#da7c87" stroke-width="none" opacity="1" transform="translate(0 2)" stroke="none"></path><path id="SvgjsPath4479" d="m84.12 127.08 11.78 1.12 5 2.4 3.8-2.7 11.52-1.23-11.12 2.23-4.5 3.3-5.1-3.1z" fill="#cb5f6c" stroke-width="none" opacity="1" transform="translate(0 2)" stroke="none"></path><path id="SvgjsPath4480" d="m92.3 134.6 1.4 1.3 14.2-.2 1.8-1z" fill="#d19271" stroke-width="none" opacity="1" transform="translate(0 2)" stroke="none"></path></g></g><g id="svga-group-eyes-left-move" transform="matrix(1,0,0,1,0,0)"><g id="svga-group-eyes-left"><g id="svga-group-eyesback-left"><path id="SvgjsPath5712" d="m91.1 97-4.5-5.3-10.7-.6-7.7 4.2 11.5 3.8z" fill="#ffffff" stroke-width="none" opacity="1"></path></g><g id="svga-group-eyesiriswrapper-left" transform="matrix(1,0,0,1,0,0)"><g id="svga-group-eyesiriscontrol-left" transform="matrix(1,0,0,1,0,0)"><g id="svga-group-eyesiris-left"><path id="SvgjsPath5933" d="M82.9 89.5h-4L76 92.4v4.1l2.9 2.8h4l2.9-2.8v-4.1z" fill="#4e60a3" stroke-width="none" opacity="1"></path><path id="SvgjsPath5934" d="M86.1 96.5v-2c0-.7 0-1.4-.1-2v-.2c-.5-.5-1-.9-1.5-1.4-.2-.2-.5-.5-.8-.7-.2-.2-.5-.4-.8-.7-.3 0-.7 0-1-.1s-.7 0-1-.1c-.7 0-1.4-.1-2.1-.1h-.1l-.1.1c-.5.5-1 .9-1.5 1.4l-.7.7-.7.7-.1.1v.1l.1 2c0 .7.1 1.4.1 2l.7.7.7.7c.5.5.9 1 1.4 1.5h.1c.7 0 1.4.1 2 .1H83l.1-.1 1.5-1.4.7-.7.7-.7.1-.1v.2zm-1.2.5-.7.7-1.3 1.4H81c-.7 0-1.3 0-2 .1-.5-.4-1-.9-1.4-1.4l-.7-.7-.7-.7c0-.7 0-1.3.1-2l.1-1.9.7-.7.7-.7 1.4-1.4c.6 0 1.3 0 1.9-.1.3 0 .7 0 1-.1.3 0 .7 0 1-.1l.7.8c.2.2.5.5.7.8.4.5.9.9 1.3 1.4 0 .7 0 1.3-.1 1.9v1.9l-.8.8z" fill="#253984" stroke-width="none" opacity="1"></path><path id="SvgjsPath5935" d="m82.6 93.2.4 1.5-.8 1.4-1.6.4-1.4-.8-.4-1.6.8-1.4 1.6-.4z" fill="#000000" stroke-width="none" opacity="1"></path><path id="SvgjsPath5936" d="m80.6 96.7-1.5-.9-.4-1.7.9-1.5 1.7-.4 1.5.9.4 1.7-.9 1.5-1.7.4zm-1.2-1.1 1.3.8 1.4-.4.8-1.3-.4-1.4-1.3-.8-1.4.4-.8 1.3.4 1.4z" fill="#253984" stroke-width="none" opacity="1"></path><path id="SvgjsPath5937" d="m78.7 90.9.8-.4 1.1 2.4-.8.4-1.1-2.4z" fill="#ffffff" stroke-width="none" opacity="1"></path><path id="SvgjsPath5938" d="M81.2 95.5h1v1h-1v-1z" fill="#ffffff" stroke-width="none" opacity="1"></path></g></g></g><g id="svga-group-eyesfront-left"><path id="SvgjsPath5720" d="M67.1 89.3v11.9l7.9 8.4h11.2l7.9-8.4V89.3l-7.9-8.4H75l-7.9 8.4zm1.1 6 7.7-4.2 10.7.6 4.5 5.3-11.5 2.1-11.4-3.8z" fill="#f0c7b1" stroke-width="none" opacity="1"></path><path id="SvgjsPath5721" d="m67.7 95.5 8-4.8 11.4.1 6.6 6.7-3 2.9-8.1 3.2 6.5-3.8 1.9-2.7-4.3-5-11.1-.4z" fill="#d19271" stroke-width="none" opacity="1"></path></g></g></g><g id="svga-group-eyes-right-move" transform="matrix(1,0,0,1,0,0)"><g id="svga-group-eyes-right"><g id="svga-group-eyesback-right"><path id="SvgjsPath5713" d="m108.9 97 4.5-5.3 10.7-.6 7.7 4.2-11.5 3.8z" fill="#ffffff" stroke-width="none" opacity="1"></path></g><g id="svga-group-eyesiriswrapper-right" transform="matrix(1,0,0,1,0,0)"><g id="svga-group-eyesiriscontrol-right" transform="matrix(1,0,0,1,0,0)"><g id="svga-group-eyesiris-right"><path id="SvgjsPath5939" d="M121.1 89.5H117l-2.9 2.9v4.1l2.9 2.8h4.1l2.8-2.8v-4.1z" fill="#4e60a3" stroke-width="none" opacity="1"></path><path id="SvgjsPath5940" d="M124.2 96.5v-2c0-.7 0-1.4-.1-2v-.1l-.1-.1c-.5-.5-1-.9-1.5-1.4-.2-.2-.5-.5-.8-.7-.2-.2-.5-.4-.8-.7-.3 0-.7 0-1-.1s-.7 0-1-.1c-.7 0-1.4-.1-2.1-.1h-.1l-.1.1c-.5.5-1 .9-1.5 1.4l-.7.7-.7.7-.1.1v.1l.1 2c0 .7.1 1.4.1 2l.7.7.7.7c.5.5.9 1 1.4 1.5h.1c.7 0 1.4.1 2 .1h2.1l.1-.1 1.5-1.4.7-.7.7-.7.1-.1.3.2zm-1.2.5-.7.7-1.3 1.4h-1.9c-.7 0-1.3 0-2 .1-.5-.4-1-.9-1.4-1.4l-.7-.7-.7-.7c0-.7 0-1.3.1-2l.1-1.9.7-.7.7-.7 1.4-1.4c.6 0 1.3 0 1.9-.1.3 0 .7 0 1-.1.3 0 .7 0 1-.1l.7.8c.2.2.5.5.7.8.4.5.9.9 1.3 1.4 0 .7 0 1.3-.1 1.9v1.9l-.8.8z" fill="#253984" stroke-width="none" opacity="1"></path><path id="SvgjsPath5941" d="m120.7 93.2.4 1.5-.8 1.4-1.6.4-1.4-.8-.4-1.6.9-1.4 1.5-.4z" fill="#000000" stroke-width="none" opacity="1"></path><path id="SvgjsPath5942" d="m118.7 96.7-1.5-.9-.4-1.7.9-1.5 1.7-.4 1.5.9.4 1.7-.9 1.5-1.7.4zm-1.2-1.1 1.3.8 1.4-.4.8-1.3-.4-1.4-1.3-.8-1.4.4-.8 1.3.4 1.4z" fill="#253984" stroke-width="none" opacity="1"></path><path id="SvgjsPath5943" d="m116.8 90.9.8-.4 1.1 2.4-.8.4-1.1-2.4z" fill="#ffffff" stroke-width="none" opacity="1"></path><path id="SvgjsPath5944" d="M119.3 95.5h1v1h-1v-1z" fill="#ffffff" stroke-width="none" opacity="1"></path></g></g></g><g id="svga-group-eyesfront-right"><path id="SvgjsPath5722" d="M125 80.8h-11.2l-7.9 8.4v11.9l7.9 8.4H125l7.9-8.4V89.3l-7.9-8.5zm-4.7 18.3L108.9 97l4.5-5.3 10.7-.6 7.7 4.2-11.5 3.8z" fill="#f0c7b1" stroke-width="none" opacity="1"></path><path id="SvgjsPath5725" d="m132.3 95.5-8-4.8-11.4.1-6.6 6.7 3 2.9 8.1 3.2-6.5-3.8-1.9-2.7 4.3-5 11.1-.4z" fill="#d19271" stroke-width="none" opacity="1"></path></g></g></g><g id="svga-group-facehighlight-single"></g><g id="svga-group-eyebrows-left-move" transform="matrix(1,0,0,1,0,0)"><g id="svga-group-eyebrows-left-rotate" transform="matrix(1,1.7453292519943295e-9,-1.7453292519943295e-9,1,1.4451326535436237e-7,-1.3849188462700113e-7)"><g id="svga-group-eyebrows-left"><path id="SvgjsPath3646" d="M74.2 77.6 71 79l-5 9 8.5-4.6 17.3 3.7.9-6z" fill="#2a232b" stroke-width="none" opacity="1"></path><path id="SvgjsPath3647" d="m87.9 84-1.2-4-1.7-.4 2.9 4.4zM73 78.2l5.6 4.6-4.4-5.2-1.2.6zm6.9.5 3.8 5-1.9-4.6-1.9-.4zm-11.7 5.4 2.7-1.5-2.1.5-.6 1zm14.7-4.8 1.7 1.9-.5-1.7-1.2-.2zm-12.4.7 3.8.8L71 79l-.5 1zm16.6.1 3.5 5.2-1.4-4.7-2.1-.5z" fill="#3a353a" stroke-width="none" opacity="1"></path></g></g></g><g id="svga-group-eyebrows-right-move" transform="matrix(1,0,0,1,0,0)"><g id="svga-group-eyebrows-right-rotate" transform="matrix(1,1.7453292519943295e-9,-1.7453292519943295e-9,1,1.4451326535436237e-7,-2.1057397248114285e-7)"><g id="svga-group-eyebrows-right"><path id="SvgjsPath3648" d="m107.3 81.1.9 6 17.3-3.7L134 88l-5-9-3.2-1.4z" fill="#2a232b" stroke-width="none" opacity="1"></path><path id="SvgjsPath3649" d="m115 79.6-1.7.3-1.2 4 2.9-4.3zm10.8-2-4.4 5.2 5.6-4.6-1.2-.6zm-7.6 1.5-1.9 4.6 3.8-5-1.9.4zm12.9 4-2.1-.5 2.7 1.5-.6-1zm-15.2-3.6-.5 1.7 1.7-1.9-1.2.2zM129 79l-3.2 1.8 3.8-.8-.6-1zm-18.2 1.5-1.4 4.7 3.5-5.2-2.1.5z" fill="#3a353a" stroke-width="none" opacity="1"></path></g></g></g><g id="svga-group-beardwrap"><g id="svga-group-beard-single-move" transform="matrix(1,0,0,1,0,0)"><g id="svga-group-beard-single"></g></g></g><g id="svga-group-mustache-single-move" transform="matrix(1,0,0,1,0,0)"><g id="svga-group-mustache-single"><path id="SvgjsPath6331" d="m98.1 118.8 1.3 1.6-.7 4.4-5.4.9.2-1.4-.9 1.6-4.9.9.2-1.3-1.2 1.5v-.9l-.9 1.1-3.1-.3.6-1.5-1 1.2-.2-1.8s2.9-3.3 3.1-3.4 7.6-2.6 7.6-2.6h5.3zm4.3 0-1.3 1.6.7 4.4 5.4.9-.2-1.4.9 1.6 4.9.9-.2-1.3 1.2 1.5v-.9l.9 1.1 3.1-.3-.6-1.5 1 1.2.2-1.8s-2.9-3.3-3.1-3.4-7.6-2.6-7.6-2.6h-5.3z" fill="#2a232b" stroke-width="none" opacity="1"></path><path id="SvgjsPath6332" d="M95.8 125c0 .2-.1-2-.1-2s-.5 1.3-.9 2.5l3.9-.6.7-4.4-1.3-1.6-5.3-.1s-7.4 2.5-7.6 2.6-3.1 3.4-3.1 3.4l.2 1.8 1-1.2-.6 1.5 1.8.2.3-2.2 2.1-2.5-1 2.4-.5 2.2.8-1.5 3.1-4.4-.5 2.2-.5 3 .9-3 1.4-3.3 3 .5-1.7 5 2.5-4.6-.7 3.6 1.4-3.6 3.7.7c-.3 1.2-.9 3-1 3.2-.1.3-1.2.3-1.2.3l.4-3.1s-1.2 2.8-1.2 3zm22.6-.3-.5.6-1.4-1.8.3 1.4-2.3-2.8 2.5 4.4-1.8-.1-1.8-2.1.1 1.2-2.7-4.7 1.4 5.1-.9-1.7.1 1.8-2.9-6.2 1.5 6.1-1.2-.9.4 1.2 3.6.6-.2-1.3 1.2 1.5v-.9l.9 1.1 3.1-.3-.6-1.5 1 1.2.2-1.9zm-10.7-6-5.3.1-1.3 1.6.7 4.4 2.7.4-1.1-1.7.3 1.4-.9-.5-.9-2.5 1-1.4 1.8 4.1-.3-2.6 1.1 2.9-1.2-5.2.8-.2 1.1 4.2V120l1.8 4.5-.9-4.5s.5-.6 1-1.1c-.1-.1-.4-.2-.4-.2z" fill="#221b23" stroke-width="none" opacity="1"></path></g></g><g id="svga-group-nose-single-move" transform="matrix(1,0,0,1,0,0)"><g id="svga-group-nose-single"><path id="SvgjsPath4465" d="m104.02 101.62 6.37 11.09-2.65 3.58-2.86-2.01-1.86 3.72h-6.3l-1.79-3.72-2.93 1.86-2.58-3.65 6.73-11.37 3.86-1.65z" fill="#f0c7b1" stroke-width="none" opacity="1" transform="translate(0 1)" stroke="none"></path><path id="SvgjsPath4466" d="m104.31 101.38-1.02-.41 6.61 11.51-2.05 2.93-1.77-1.21.28-1.31-1.4.6-2.05 4.04-2.7.1-3.2-.1-2.05-4.04-1.4-.6.28 1.31-1.77 1.21-2.04-2.93 6.61-11.51.42-13.8-1.45 14.21-6.7 11.3 3.26 4.24 2.79-2.01 1.58 3.53h6.84l1.58-3.53 2.8 2.01 3.26-4.24z" fill="#d19271" stroke-width="none" opacity="1" transform="translate(0 1)" stroke="none"></path><path id="SvgjsPath4467" d="m96.51 113.01 1.67.79 3.93.1 1.96-.89-.74-3.01-1.27-3.98-2.6 5.23z" fill="#f8d5c3" stroke-width="none" opacity="1" transform="translate(0 1)" stroke="none"></path></g></g><g id="svga-group-hair-front"><path id="SvgjsPath6118" d="m99.5 63.6-9.3-2.3-5-1.4-5.1-1.7-7.3-1.8-6.5 8.8-3 18.8-3 9.3-4.2-5.7-.4-10.7 1.2-15.1 7.3-12.1-1.1-6.2 3.9-9.7.4-6.5 3 7.7-1.2-7.3 3.6-7.2v4.6l1.8 3.6-.4-4 4.5 5.3 6.8 2-5.8-3.9-1.6-4.4 4.6 3 4 .4-2.8-3.6 5.9 3 21.1 2.6 4.9 3.5 10.3 4.8 1.8 3.2 4.6 4.3.8 4.2 8.5 6.8 2.4 19.2-.2 13.7-5.2 6.3-2.3-9.1-2-23.6L125 55l-14.8 6.1z" fill="#2a232b" stroke-width="none" opacity="1"></path><path id="SvgjsPath6119" d="m99.5 63.6-18.2-9L70.4 35l-1.2-7.3 3.6-7.3V25l1.8 3.6 10.5 9.5 11.4 7.7 1 14.1 2 3.7zm-26.7-7.2-8.6-6.7-1.1-6.2 3.9-9.7 5.3 15.7 14.5 10.7-14-3.8zm5.3-32.7 1.6 4.4 5.8 3.8 20.4 5.9 4.9 10.9-4.2 11.9-7.2 2.8 10.7-2.5s9.7-17.1 9.7-17.9-6.7-10-6.7-10l-28.2-4.2-4.9-2-1.9-3.1zm55.2 25.4L125 55l-10.1 4 10.5-9.2 2.4-9.2 4.6 4.2.9 4.3zm1.2 13.3 3.4-2.2 3.9-4.3-3.9 12.8-2.6 4.4-.8-10.7zm-68.2 2.8-3 18.8-6.5-22.2 6-9.7 3.5 13.1z" fill="#221b23" stroke-width="none" opacity="1"></path><path id="SvgjsPath6120" d="m79.3 31 25.5 7.1 6.1 10.8-4.3 11.9-6.7-17.1-15.1-7.5-5.5-5.2zm35.2 26.2 11-7.3 2.4-9.2-1.8-3.2-10.3-4.8 7.2 8.7-.6 5.2-7.9 10.6z" fill="#322c33" stroke-width="none" opacity="1"></path></g><g id="svga-group-glasses-single-move" transform="matrix(1,0,0,1,0,0)"><g id="svga-group-glasses-single"></g></g></g></g></g><rect id="svga-credit-rect" width="200" height="15" x="0" y="185" fill="#ecf0f1" opacity="0.5" style="display: none;"></rect><text id="svga-credit-text" font-family="Avenir Next, Roboto, Helvetica, Arial, sans-serif" font-size="10px" text-anchor="start" font-weight="400" size="10px" anchor="start" weight="400" fill="#333333" x="33.402061462402344" y="182.71133995056152" style="display: none;"><tspan id="SvgjsTspan3640" dy="13" x="33.402061462402344">Created on AvatarMaker.com</tspan></text></g><defs id="SvgjsDefs3587"></defs></svg>